<svg class="diagram-root" style="background: #f5f6f6" xmlns="http://www.w3.org/2000/svg" xmlns:xlink="http://www.w3.org/1999/xlink"><style>.diagram-root { font-family: "Helvetica Neue", sans-serif; font-size: 12px; } .t { overflow: visible; } .t-bg { y: 40; fill: #fff;   } .th { fill: #005aa0;   } .tht { fill: #fff; font-size: 14px;  } .tf { fill: #323c46; overflow: visible; } .tf.pk { fill: #005aa0; font-weight: bold; } .tf.fk { font-weight: bold; } .ty { fill: #adb1b5; font-weight: normal; text-anchor: end; } .r { fill: transparent; stroke: #c3c3c3; stroke-width: 1; } .l { stroke: 1; } .i { fill: #c2c7ce; stroke: #c2c7ce; } .i.ix { fill: #afb3b6; stroke: #000; } .fa { fill: transparent; overflow: visible; } .fa .bg.hover { fill: #f7f7f7; } .c { cy: 12; r: 4; stroke: #d2d2dc; fill: #d2d2dc; } .hr { fill: transparent; stroke: #323c46; stroke-opacity: 0.035; stroke-width: 13; } .dc { stroke: #fa5a3c; fill: #fa5a3c; } .x { stroke: white; stroke-width: 1; } .hl .th { fill: #1b9bff; } .hl .tht {  } .fhl .bg { fill: #e7f4ff; } .fhls .bg {  } .r.hl { stroke: #1b9bff; } .dim { opacity: 0.25; }</style><g class="drawing-wrapper" transform="translate(-100, -120) scale(1,1)"><g class="rs"><path d="M 220.7 390 m -1, 0 a 1,1 0 1,0 2,0 a 1,1 0 1,0 -2,0 M 220.7 390 m -0.5, 0 a 0.5,0.5 0 1,0 1,0 a 0.5,0.5 0 1,0 -1,0  M220.7 390 L220.7 390 232.7 390 M 220.7 396 m -1, 0 a 1,1 0 1,0 2,0 a 1,1 0 1,0 -2,0 M 220.7 396 m -0.5, 0 a 0.5,0.5 0 1,0 1,0 a 0.5,0.5 0 1,0 -1,0  M220.7 396 L220.7 396 227.7 390 220.7 384 M 220.7 384 m -1, 0 a 1,1 0 1,0 2,0 a 1,1 0 1,0 -2,0 M 220.7 384 m -0.5, 0 a 0.5,0.5 0 1,0 1,0 a 0.5,0.5 0 1,0 -1,0  M232.7 390 Q 280.52 390, 328.35 298.5 T 424 207 M 436 207 m -1, 0 a 1,1 0 1,0 2,0 a 1,1 0 1,0 -2,0 M 436 207 m -0.5, 0 a 0.5,0.5 0 1,0 1,0 a 0.5,0.5 0 1,0 -1,0  M436 207 L436 207 424 207 M430 213 L430 213 430 201" id="h2321919088" class="r"></path><path d="M 220.7 415 m -1, 0 a 1,1 0 1,0 2,0 a 1,1 0 1,0 -2,0 M 220.7 415 m -0.5, 0 a 0.5,0.5 0 1,0 1,0 a 0.5,0.5 0 1,0 -1,0  M220.7 415 L220.7 415 232.7 415 M 220.7 421 m -1, 0 a 1,1 0 1,0 2,0 a 1,1 0 1,0 -2,0 M 220.7 421 m -0.5, 0 a 0.5,0.5 0 1,0 1,0 a 0.5,0.5 0 1,0 -1,0  M220.7 421 L220.7 421 227.7 415 220.7 409 M 220.7 409 m -1, 0 a 1,1 0 1,0 2,0 a 1,1 0 1,0 -2,0 M 220.7 409 m -0.5, 0 a 0.5,0.5 0 1,0 1,0 a 0.5,0.5 0 1,0 -1,0  M232.7 415 Q 283.77 415, 334.85 482 T 437 549 M 449 549 m -1, 0 a 1,1 0 1,0 2,0 a 1,1 0 1,0 -2,0 M 449 549 m -0.5, 0 a 0.5,0.5 0 1,0 1,0 a 0.5,0.5 0 1,0 -1,0  M449 549 L449 549 437 549 M443 555 L443 555 443 543" id="h3658010857" class="r"></path></g><g class="hrs"></g><g class="ts"><svg width="143.71" height="200" x="436" y="150" id="h3889921393" class="t"><rect height="40" width="143.71" class="th"></rect><text x="13" y="25" class="tht">Users</text><rect height="160" width="143.71" class="t-bg"></rect><text x="13" y="61" class="tf pk">user_Id<tspan x="130.71" class="ty">int</tspan></text><path d="M7,14A2,2 0 0,1 5,12A2,2 0 0,1 7,10A2,2 0 0,1 9,12A2,2 0 0,1 7,14M12.65,10C11.83,7.67 9.61,6 7, 6A6, 6 0 0, 0 1, 12A6, 6 0 0, 0 7, 18C9.61, 18 11.83, 16.33 12.65, 14H17V18H21V14H23V10H12.65Z" class="i pk" transform="translate(98.03617187500001, 48) scale(0.65)"></path><text x="13" y="86" class="tf">username<tspan x="130.71" class="ty">string</tspan></text><path d="M814.545 581.818v-23.273H535.273v-93.09h-46.546v93.09H209.455v139.637H256V605.09h232.727v93.09h46.546v-93.09H768v93.09h46.545V581.819zM674.91 465.455H349.091V139.636h325.818v325.819zM325.82 884.364H139.635V698.182h186.182v186.182z m279.272 0H418.909V698.182h186.182v186.182z m279.273 0H698.182V698.182h186.182v186.182zM395.636 418.909h232.728V186.182H395.636v232.727zM186.182 837.82h93.09v-93.092h-93.09v93.091z m279.273 0h93.09v-93.092h-93.09v93.091z m279.272 0h93.091v-93.092h-93.09v93.091z" class="i ix" transform="translate(86.36625000000001, 75) scale(0.014)"></path><text x="13" y="111" class="tf">First_name<tspan x="130.71" class="ty">string</tspan></text><text x="13" y="136" class="tf">Last_Name<tspan x="130.71" class="ty">string</tspan></text><text x="13" y="161" class="tf">Email<tspan x="130.71" class="ty">string</tspan></text><text x="13" y="186" class="tf">Password<tspan x="130.71" class="ty">string</tspan></text></svg><svg width="98.7" height="125" x="122" y="308" id="h3739479670" class="t"><rect height="40" width="98.7" class="th"></rect><text x="13" y="25" class="tht">Favorites</text><rect height="85" width="98.7" class="t-bg"></rect><text x="13" y="61" class="tf pk">id<tspan x="85.7" class="ty">int</tspan></text><path d="M7,14A2,2 0 0,1 5,12A2,2 0 0,1 7,10A2,2 0 0,1 9,12A2,2 0 0,1 7,14M12.65,10C11.83,7.67 9.61,6 7, 6A6, 6 0 0, 0 1, 12A6, 6 0 0, 0 7, 18C9.61, 18 11.83, 16.33 12.65, 14H17V18H21V14H23V10H12.65Z" class="i pk" transform="translate(53.026171875, 48) scale(0.65)"></path><text x="13" y="86" class="tf fk">user_Id<tspan x="85.7" class="ty">int</tspan></text><text x="13" y="111" class="tf fk">RecipeId</text></svg><svg width="127.37" height="150" x="449" y="492" id="h3204371509" class="t"><rect height="40" width="127.37" class="th"></rect><text x="13" y="25" class="tht">Recipes</text><rect height="110" width="127.37" class="t-bg"></rect><text x="13" y="61" class="tf pk">recipe_id<tspan x="114.37" class="ty">int</tspan></text><path d="M7,14A2,2 0 0,1 5,12A2,2 0 0,1 7,10A2,2 0 0,1 9,12A2,2 0 0,1 7,14M12.65,10C11.83,7.67 9.61,6 7, 6A6, 6 0 0, 0 1, 12A6, 6 0 0, 0 7, 18C9.61, 18 11.83, 16.33 12.65, 14H17V18H21V14H23V10H12.65Z" class="i pk" transform="translate(81.696171875, 48) scale(0.65)"></path><text x="13" y="86" class="tf">Title<tspan x="114.37" class="ty">string</tspan></text><text x="13" y="111" class="tf">Image</text><text x="13" y="136" class="tf">total_time<tspan x="114.37" class="ty">int</tspan></text></svg></g></g><text class="qdbd-link" x="10" y="20">www.quickdatabasediagrams.com</text></svg>